<?xml version="1.0" encoding="UTF-8"?>
<svg width="365px" height="166px" viewBox="0 0 365 166" version="1.1" xmlns="http://www.w3.org/2000/svg" xmlns:xlink="http://www.w3.org/1999/xlink">
    <!-- Generator: Sketch 51.2 (57519) - http://www.bohemiancoding.com/sketch -->
    <title>ilustração</title>
    <desc>Created with Sketch.</desc>
    <defs></defs>
    <g id="Auto-credenciamento" stroke="none" stroke-width="1" fill="none" fill-rule="evenodd">
        <g id="Cadastro---passo-3" transform="translate(-501.000000, -151.000000)">
            <g id="ilustração" transform="translate(501.000000, 151.000000)">
                <path d="M75,164.5 L289.5,164.5" id="Line-3" stroke="#17C9B2" stroke-width="2" stroke-linecap="square"></path>
                <path d="M34.5,164.5 L70,164.5" id="Line-2" stroke="#17C9B2" stroke-width="2" stroke-linecap="square"></path>
                <path d="M296.5,164.25 L316.5,164.25" id="Line-2-Copy" stroke="#17C9B2" stroke-width="2" stroke-linecap="square"></path>
                <g id="detalhes" transform="translate(15.000000, 29.000000)">
                    <path d="M250.783612,44 L250,43.2163884 L252.216388,41 L253,41.7836116 L250.783612,44 Z M247.216388,44 L245,41.7836116 L245.783612,41 L248,43.2163884 L247.216388,44 Z M250.783612,46 L253,48.2163884 L252.216388,49 L250,46.7836116 L250.783612,46 Z M247.216388,46 L248,46.7836116 L245.783612,49 L245,48.2163884 L247.216388,46 Z" id="Combined-Shape-Copy-2" fill="#858C8F"></path>
                    <circle id="Oval-3" stroke="#858C8F" stroke-width="2" cx="316" cy="112" r="4"></circle>
                    <path d="M0,116 L0,114 L15,114 L15,116 L0,116 Z M12,121 L12,119 L24,119 L24,121 L12,121 Z M17,116 L17,114 L23,114 L23,116 L17,116 Z M6,121 L6,119 L11,119 L11,121 L6,121 Z" id="Combined-Shape" fill="#858C8F"></path>
                    <path d="M264,2 L264,0 L277,0 L277,2 L264,2 Z M274,8 L274,6 L285,6 L285,8 L274,8 Z M278,2 L278,0 L284,0 L284,2 L278,2 Z M268,8 L268,6 L272,6 L272,8 L268,8 Z" id="Combined-Shape-Copy-4" fill="#858C8F"></path>
                </g>
                <g id="nuvens" fill="#D9E4EA" opacity="0.509430804">
                    <rect id="Rectangle-Copy-6" x="20" y="119" width="67" height="13" rx="6.5"></rect>
                    <rect id="Rectangle-Copy" x="148" y="0" width="162" height="18" rx="8"></rect>
                    <rect id="Rectangle-Copy-2" x="90" y="23" width="116" height="13" rx="6.5"></rect>
                    <rect id="Rectangle-Copy-3" x="0" y="43" width="306" height="18" rx="8"></rect>
                    <rect id="Rectangle-Copy-5" x="197" y="73" width="168" height="18" rx="8"></rect>
                    <rect id="Rectangle-Copy-7" x="197" y="123" width="106" height="18" rx="8"></rect>
                    <rect id="Rectangle-Copy-8" x="141" y="147" width="162" height="18" rx="8"></rect>
                    <rect id="Rectangle-Copy-4" x="33" y="96" width="222" height="13" rx="6.5"></rect>
                </g>
                <g id="computador" transform="translate(86.000000, 76.000000)" stroke="#8459B9">
                    <path d="M16.9253731,80 L0,80 C0.626865672,84.2 2.19402985,86.9 4.70149254,88.1 C7.20895522,89.3 66.4477612,89.3 182.41791,88.1 C186.80597,86.9 189,84.2 189,80 C189,80 182.104478,80 168.313433,80" id="Path-5" fill="#FFFFFF"></path>
                    <rect id="Rectangle-4" fill="#FFFFFF" x="16.5" y="0.5" width="161" height="80"></rect>
                    <rect id="Rectangle-3" fill="#EBF1F4" opacity="0.8" x="22.5" y="5.5" width="149" height="70"></rect>
                    <path d="M75,81 C75.6666667,83 76.6666667,84 78,84 C79.3333333,84 92.6666667,84 118,84 C120,83.3333333 121,82.3333333 121,81 C121,81 105.666667,81 75,81 Z" id="Path-7"></path>
                </g>
                <g id="folha" transform="translate(154.000000, 65.000000)">
                    <path d="M14.2264151,0 L54.7169811,0 C56.9056604,0.696078431 58,1.74019608 58,3.13235294 C58,4.5245098 58,26.1029412 58,67.8676471 C58,69.9558824 56.9056604,71 54.7169811,71 C52.5283019,71 35.3836478,71 3.28301887,71 C1.09433962,71 0,69.9558824 0,67.8676471 C0,65.7794118 0,47.6813725 0,13.5735294 L14.2264151,0 Z" id="Path-2" stroke="#17C9B2" stroke-width="2" fill="#FFFFFF"></path>
                    <path d="M10,26 L30,26 C31.1045695,26 32,26.8954305 32,28 C32,29.1045695 31.1045695,30 30,30 L10,30 C8.8954305,30 8,29.1045695 8,28 C8,26.8954305 8.8954305,26 10,26 Z M10,34 L47,34 C48.1045695,34 49,34.8954305 49,36 C49,37.1045695 48.1045695,38 47,38 L10,38 C8.8954305,38 8,37.1045695 8,36 C8,34.8954305 8.8954305,34 10,34 Z M10,50 L47,50 C48.1045695,50 49,50.8954305 49,52 C49,53.1045695 48.1045695,54 47,54 L10,54 C8.8954305,54 8,53.1045695 8,52 C8,50.8954305 8.8954305,50 10,50 Z M36,26 L47,26 C48.1045695,26 49,26.8954305 49,28 C49,29.1045695 48.1045695,30 47,30 L36,30 C34.8954305,30 34,29.1045695 34,28 C34,26.8954305 34.8954305,26 36,26 Z M38,42 L47,42 C48.1045695,42 49,42.8954305 49,44 C49,45.1045695 48.1045695,46 47,46 L38,46 C36.8954305,46 36,45.1045695 36,44 C36,42.8954305 36.8954305,42 38,42 Z M24,42 L32,42 C33.1045695,42 34,42.8954305 34,44 C34,45.1045695 33.1045695,46 32,46 L24,46 C22.8954305,46 22,45.1045695 22,44 C22,42.8954305 22.8954305,42 24,42 Z M10,42 L18,42 C19.1045695,42 20,42.8954305 20,44 C20,45.1045695 19.1045695,46 18,46 L10,46 C8.8954305,46 8,45.1045695 8,44 C8,42.8954305 8.8954305,42 10,42 Z" id="Combined-Shape" fill="#B7C7CF"></path>
                    <path d="M1,13 L10.75,13 C12.9166667,13 14,12.2777778 14,10.8333333 C14,9.38888889 14,5.77777778 14,0" id="Path-3" stroke="#17C9B2" stroke-width="2" fill="#FFFFFF"></path>
                </g>
                <path d="M189,74 C187.666667,63.9729876 191.333333,56.2020529 200,50.6871961 C208.666667,45.1723393 219.333333,43.6682874 232,46.1750405" id="Path-4" stroke="#17C9B2" stroke-dasharray="2"></path>
                <g id="box" transform="translate(238.033473, 43.956377) rotate(-15.000000) translate(-238.033473, -43.956377) translate(231.533473, 36.456377)" stroke="#17C9B2" stroke-linecap="round" stroke-linejoin="round">
                    <path d="M7.03498704,0.818347282 L12.0117791,3.29498373 C12.4345934,3.50409234 12.7020584,3.93337146 12.702309,4.40327854 L12.702309,10.3038649 C12.7020584,10.773772 12.4345934,11.2030511 12.0117791,11.4121597 L7.03498704,13.8887961 C6.68451641,14.063343 6.27190046,14.063343 5.92142983,13.8887961 L0.944637803,11.4121597 C0.522227855,11.2003261 0.257037164,10.7684285 0.260328899,10.2976733 L0.260328899,4.40327854 C0.260579434,3.93337146 0.528044428,3.50409234 0.950858793,3.29498373 L5.92765082,0.818347282 C6.27641982,0.645858748 6.68621805,0.645858748 7.03498704,0.818347282 Z" id="Shape"></path>
                    <polyline id="Shape" points="0.260298605 4.24384098 6.48130378 6.90998606 12.702309 4.24384098"></polyline>
                    <path d="M6.48130378,14.0197063 L6.48130378,6.90998606" id="Shape"></path>
                </g>
                <path d="M176.773904,65.0574075 C171.440571,49.7240742 161.773904,42.3907409 147.773904,43.0574075 C133.773904,43.7240742 124.773904,49.7240742 120.773904,61.0574075 C118.224716,71.2896821 121.950122,76.0724861 131.950122,75.4058194 C139.321183,74.9144154 140.947218,63.907176 133.773904,59.0574075 C126.34963,54.0379683 99.5560688,64.7026011 98.5388769,86.5722274" id="Path-6" stroke="#17C9B2" stroke-dasharray="2" transform="translate(137.656391, 64.793984) rotate(25.000000) translate(-137.656391, -64.793984) "></path>
                <g id="minimize" transform="translate(135.000000, 33.000000)" stroke="#17C9B2" stroke-linecap="round" stroke-linejoin="round">
                    <path d="M5,2 L5,3.8 C5,4.4627417 4.4627417,5 3.8,5 L2,5 M10,5 L8.2,5 C7.5372583,5 7,4.4627417 7,3.8 L7,2 M7,10 L7,8.2 C7,7.5372583 7.5372583,7 8.2,7 L10,7 M2,7 L3.8,7 C4.4627417,7 5,7.5372583 5,8.2 L5,10" id="Shape" transform="translate(6.000000, 6.000000) rotate(-20.000000) translate(-6.000000, -6.000000) "></path>
                </g>
                <g id="layers" transform="translate(81.000000, 65.000000)" stroke="#17C9B2" stroke-linecap="round" stroke-linejoin="round">
                    <polygon id="Shape" points="5.5 0 0 3 5.5 6 11 3"></polygon>
                    <polyline id="Shape" points="0 7 5.5 10 11 7"></polyline>
                    <polyline id="Shape" points="0 5 5.5 8 11 5"></polyline>
                </g>
            </g>
        </g>
    </g>
</svg>