<svg xmlns="http://www.w3.org/2000/svg" xmlns:xlink="http://www.w3.org/1999/xlink" height="166px" viewBox="0 0 375 175"><defs><clipPath id="a" transform="translate(5 5)"><rect x="-501" y="-159" width="1366" height="946" style="fill:none"/></clipPath><clipPath id="b" transform="translate(5 5)"><path d="M26.5,119h54a6.5,6.5,0,0,1,0,13h-54a6.5,6.5,0,0,1,0-13Z" style="fill:none;clip-rule:evenodd"/></clipPath><clipPath id="d" transform="translate(5 5)"><rect x="148" width="162" height="18" rx="8" ry="8" style="fill:none"/></clipPath><clipPath id="f" transform="translate(5 5)"><path d="M96.5,23h103a6.5,6.5,0,0,1,0,13H96.5a6.5,6.5,0,0,1,0-13Z" style="fill:none;clip-rule:evenodd"/></clipPath><clipPath id="h" transform="translate(5 5)"><rect y="43" width="306" height="18" rx="8" ry="8" style="fill:none"/></clipPath><clipPath id="j" transform="translate(5 5)"><rect x="197" y="73" width="168" height="18" rx="8" ry="8" style="fill:none"/></clipPath><clipPath id="l" transform="translate(5 5)"><rect x="197" y="123" width="106" height="18" rx="8" ry="8" style="fill:none"/></clipPath><clipPath id="n" transform="translate(5 5)"><rect x="141" y="147" width="162" height="18" rx="8" ry="8" style="fill:none"/></clipPath><clipPath id="p" transform="translate(5 5)"><path d="M39.5,96h209a6.5,6.5,0,0,1,0,13H39.5a6.5,6.5,0,0,1,0-13Z" style="fill:none;clip-rule:evenodd"/></clipPath><clipPath id="r" transform="translate(5 5)"><path d="M102.93,156H86q.94,6.3,4.7,8.1t177.72,0Q275,162.3,275,156H254.31" style="fill:none;clip-rule:evenodd"/></clipPath><clipPath id="u" transform="translate(5 5)"><rect x="102" y="75" width="162" height="82" style="fill:none"/></clipPath><clipPath id="z" transform="translate(5 5)"><rect x="108" y="80" width="150" height="72" style="fill:none"/></clipPath><clipPath id="ae" transform="translate(5 5)"><path d="M262.22,75l.78.78L260.78,78l-.78-.78Zm3.56,0L268,77.22l-.78.78L265,75.78Zm-3.56-2L260,70.78l.78-.78L263,72.22Zm3.56,0-.78-.78L267.22,70l.78.78Z" style="fill:none;clip-rule:evenodd"/></clipPath><clipPath id="ah" transform="translate(5 5)"><path d="M61,150v-2h5v2Zm11-5v-2h6v2Zm-5,5v-2H79v2Zm-12-5v-2H70v2Z" style="fill:none;clip-rule:evenodd"/></clipPath><clipPath id="aj" transform="translate(5 5)"><path d="M253,47V45h4v2Zm10-6V39h6v2Zm-4,6V45h11v2Zm-10-6V39h13v2Z" style="fill:none;clip-rule:evenodd"/></clipPath></defs><title>passo1_illustrator</title><g style="clip-path:url(#a)"><line x1="80" y1="169.5" x2="294.5" y2="169.5" style="fill:none;stroke:#3ebdac;stroke-linecap:square;stroke-miterlimit:10;stroke-width:2px"/><line x1="39.5" y1="169.5" x2="75" y2="169.5" style="fill:none;stroke:#3ebdac;stroke-linecap:square;stroke-miterlimit:10;stroke-width:2px"/><line x1="301.5" y1="169.25" x2="321.5" y2="169.25" style="fill:none;stroke:#3ebdac;stroke-linecap:square;stroke-miterlimit:10;stroke-width:2px"/></g><g style="clip-path:url(#b)"><g style="clip-path:url(#a)"><rect x="20" y="119" width="77" height="23" style="fill:#dae4ea;opacity:0.5094000101089478"/></g></g><g style="clip-path:url(#d)"><g style="clip-path:url(#a)"><rect x="148" width="172" height="28" style="fill:#dae4ea;opacity:0.5094000101089478"/></g></g><g style="clip-path:url(#f)"><g style="clip-path:url(#a)"><rect x="90" y="23" width="126" height="23" style="fill:#dae4ea;opacity:0.5094000101089478"/></g></g><g style="clip-path:url(#h)"><g style="clip-path:url(#a)"><rect y="43" width="316" height="28" style="fill:#dae4ea;opacity:0.5094000101089478"/></g></g><g style="clip-path:url(#j)"><g style="clip-path:url(#a)"><rect x="197" y="73" width="178" height="28" style="fill:#dae4ea;opacity:0.5094000101089478"/></g></g><g style="clip-path:url(#l)"><g style="clip-path:url(#a)"><rect x="197" y="123" width="116" height="28" style="fill:#dae4ea;opacity:0.5094000101089478"/></g></g><g style="clip-path:url(#n)"><g style="clip-path:url(#a)"><rect x="141" y="147" width="172" height="28" style="fill:#dae4ea;opacity:0.5094000101089478"/></g></g><g style="clip-path:url(#p)"><g style="clip-path:url(#a)"><rect x="33" y="96" width="232" height="23" style="fill:#dae4ea;opacity:0.5094000101089478"/></g></g><g style="clip-path:url(#r)"><g style="clip-path:url(#a)"><rect x="86" y="156" width="199" height="19" style="fill:#fff"/></g></g><g style="clip-path:url(#a)"><path d="M102.93,156H86q.94,6.3,4.7,8.1t177.72,0Q275,162.3,275,156H254.31" transform="translate(5 5)" style="fill:none;stroke:#805ca7;stroke-miterlimit:10"/></g><g style="clip-path:url(#u)"><g style="clip-path:url(#a)"><rect x="107" y="80" width="162" height="82" style="fill:#fff"/></g></g><g style="clip-path:url(#u)"><g style="clip-path:url(#a)"><rect x="107" y="80" width="162" height="82" style="fill:none;stroke:#805ca7;stroke-miterlimit:10;stroke-width:2px"/></g></g><g style="clip-path:url(#a)"><g style="opacity:0.699999988079071;isolation:isolate"><g style="clip-path:url(#z)"><g style="clip-path:url(#z)"><g style="clip-path:url(#z)"><rect x="113" y="85" width="150" height="72" style="fill:#ecf1f4"/></g></g><g style="clip-path:url(#z)"><g style="clip-path:url(#z)"><rect x="113" y="85" width="150" height="72" style="fill:none;stroke:#805ca7;stroke-miterlimit:10;stroke-width:2px"/></g></g></g></g><path d="M173,127.23q9,7,21,1" transform="translate(5 5)" style="fill:none;stroke:#9d7cb8;stroke-miterlimit:10"/><path d="M102,118q-9,1-17-10" transform="translate(5 5)" style="fill:none;stroke:#805ca7;stroke-miterlimit:10"/><path d="M264,119q2,9,11,9" transform="translate(5 5)" style="fill:none;stroke:#805ca7;stroke-miterlimit:10"/><text transform="translate(172.32 129)" style="font-size:24px;fill:#805ca7;font-family:UniNeueBold, Uni Neue;font-weight:700">me</text></g><g style="clip-path:url(#ae)"><g style="clip-path:url(#a)"><rect x="260" y="70" width="18" height="18" style="fill:#868c8f"/></g></g><g style="clip-path:url(#a)"><circle cx="306" cy="146" r="4" style="fill:none;stroke:#868c8f;stroke-miterlimit:10;stroke-width:2px"/><circle cx="80" cy="55" r="4" style="fill:none;stroke:#868c8f;stroke-miterlimit:10;stroke-width:2px"/><circle cx="93" cy="64" r="3" style="fill:none;stroke:#868c8f;stroke-miterlimit:10;stroke-width:2px"/></g><g style="clip-path:url(#ah)"><g style="clip-path:url(#a)"><rect x="55" y="143" width="34" height="17" style="fill:#868c8f"/></g></g><g style="clip-path:url(#aj)"><g style="clip-path:url(#a)"><rect x="249" y="39" width="31" height="18" style="fill:#868c8f"/></g></g></svg>