<?xml version="1.0" encoding="UTF-8"?>
<svg width="365px" height="166px" viewBox="0 0 365 166" version="1.1" xmlns="http://www.w3.org/2000/svg" xmlns:xlink="http://www.w3.org/1999/xlink">
    <!-- Generator: Sketch 51.2 (57519) - http://www.bohemiancoding.com/sketch -->
    <title>ilustração</title>
    <desc>Created with Sketch.</desc>
    <defs></defs>
    <g id="Auto-credenciamento" stroke="none" stroke-width="1" fill="none" fill-rule="evenodd">
        <g id="Waiting-page---Recusado" transform="translate(-501.000000, -159.000000)">
            <g id="ilustração" transform="translate(501.000000, 159.000000)">
                <path d="M51.5,164.5 L289.5,164.5" id="Line-3" stroke="#17C9B2" stroke-width="2" stroke-linecap="square"></path>
                <path d="M34.5,164.5 L46.5,164.5" id="Line-2" stroke="#17C9B2" stroke-width="2" stroke-linecap="square"></path>
                <path d="M296.5,164.25 L316.5,164.25" id="Line-2-Copy" stroke="#17C9B2" stroke-width="2" stroke-linecap="square"></path>
                <g id="nuvens" fill="#D9E4EA" opacity="0.509430804">
                    <rect id="Rectangle-Copy-6" x="20" y="119" width="67" height="13" rx="6.5"></rect>
                    <rect id="Rectangle-Copy" x="148" y="0" width="162" height="18" rx="8"></rect>
                    <rect id="Rectangle-Copy-2" x="90" y="23" width="116" height="13" rx="6.5"></rect>
                    <rect id="Rectangle-Copy-3" x="0" y="43" width="306" height="18" rx="8"></rect>
                    <rect id="Rectangle-Copy-5" x="197" y="73" width="168" height="18" rx="8"></rect>
                    <rect id="Rectangle-Copy-7" x="197" y="123" width="106" height="18" rx="8"></rect>
                    <rect id="Rectangle-Copy-8" x="141" y="147" width="162" height="18" rx="8"></rect>
                    <rect id="Rectangle-Copy-4" x="33" y="96" width="222" height="13" rx="6.5"></rect>
                </g>
                <g id="computador" transform="translate(86.000000, 75.000000)">
                    <path d="M16.9253731,81 L0,81 C0.626865672,85.2 2.19402985,87.9 4.70149254,89.1 C7.20895522,90.3 66.4477612,90.3 182.41791,89.1 C186.80597,87.9 189,85.2 189,81 C189,81 182.104478,81 168.313433,81" id="Path-5" stroke="#8459B9" fill="#FFFFFF"></path>
                    <rect id="Rectangle-4" stroke="#8459B9" fill="#FFFFFF" x="16.5" y="0.5" width="161" height="81"></rect>
                    <rect id="Rectangle-3" stroke="#8459B9" fill="#EBF1F4" opacity="0.7" x="22.5" y="5.5" width="149" height="71"></rect>
                    <circle id="Oval-2" fill="#9D7BC7" cx="85" cy="41" r="2"></circle>
                    <circle id="Oval-2-Copy" fill="#9D7BC7" cx="111" cy="41" r="2"></circle>
                    <path d="M91.5,54.5 L103.5,54.5" id="Line-4" stroke="#9D7BC7" stroke-linecap="square"></path>
                </g>
                <g id="detalhes" transform="translate(55.000000, 39.000000)">
                    <path d="M187.783612,42 L187,41.2163884 L189.216388,39 L190,39.7836116 L187.783612,42 Z M184.216388,42 L182,39.7836116 L182.783612,39 L185,41.2163884 L184.216388,42 Z M187.783612,44 L190,46.2163884 L189.216388,47 L187,44.7836116 L187.783612,44 Z M184.216388,44 L185,44.7836116 L182.783612,47 L182,46.2163884 L184.216388,44 Z" id="Combined-Shape-Copy-2" fill="#858C8F"></path>
                    <circle id="Oval-3" stroke="#858C8F" stroke-width="2" cx="246" cy="102" r="4"></circle>
                    <circle id="Oval-3-Copy" stroke="#858C8F" stroke-width="2" cx="20" cy="11" r="4"></circle>
                    <circle id="Oval-3-Copy-2" stroke="#858C8F" stroke-width="2" cx="33" cy="20" r="3"></circle>
                    <path d="M0,106 L0,104 L15,104 L15,106 L0,106 Z M12,111 L12,109 L24,109 L24,111 L12,111 Z M17,106 L17,104 L23,104 L23,106 L17,106 Z M6,111 L6,109 L11,109 L11,111 L6,111 Z" id="Combined-Shape" fill="#858C8F"></path>
                    <path d="M194,2 L194,0 L207,0 L207,2 L194,2 Z M204,8 L204,6 L215,6 L215,8 L204,8 Z M208,2 L208,0 L214,0 L214,2 L208,2 Z M198,8 L198,6 L202,6 L202,8 L198,8 Z" id="Combined-Shape-Copy-4" fill="#858C8F"></path>
                </g>
            </g>
        </g>
    </g>
</svg>