<?xml version="1.0" encoding="UTF-8"?>
<svg width="365px" height="176px" viewBox="0 0 365 176" version="1.1" xmlns="http://www.w3.org/2000/svg" xmlns:xlink="http://www.w3.org/1999/xlink">
    <!-- Generator: Sketch 51.2 (57519) - http://www.bohemiancoding.com/sketch -->
    <title>ilustração</title>
    <desc>Created with Sketch.</desc>
    <defs></defs>
    <g id="Auto-credenciamento" stroke="none" stroke-width="1" fill="none" fill-rule="evenodd">
        <g id="Waiting-page-1" transform="translate(-501.000000, -161.000000)">
            <g id="ilustração" transform="translate(501.000000, 150.000000)">
                <g id="nuvens" transform="translate(0.000000, 21.000000)" fill="#D9E4EA" opacity="0.509430804">
                    <rect id="Rectangle-Copy-6" x="20" y="119" width="67" height="13" rx="6.5"></rect>
                    <rect id="Rectangle-Copy" x="148" y="0" width="162" height="18" rx="8"></rect>
                    <rect id="Rectangle-Copy-2" x="90" y="23" width="116" height="13" rx="6.5"></rect>
                    <rect id="Rectangle-Copy-3" x="0" y="43" width="306" height="18" rx="8"></rect>
                    <rect id="Rectangle-Copy-5" x="197" y="73" width="168" height="18" rx="8"></rect>
                    <rect id="Rectangle-Copy-7" x="197" y="123" width="106" height="18" rx="8"></rect>
                    <rect id="Rectangle-Copy-8" x="141" y="148" width="205" height="18" rx="8"></rect>
                    <rect id="Rectangle-Copy-4" x="33" y="96" width="222" height="13" rx="6.5"></rect>
                </g>
                <g id="detalhes" transform="translate(19.000000, 30.000000)">
                    <path d="M246.783612,44 L246,43.2163884 L248.216388,41 L249,41.7836116 L246.783612,44 Z M243.216388,44 L241,41.7836116 L241.783612,41 L244,43.2163884 L243.216388,44 Z M246.783612,46 L249,48.2163884 L248.216388,49 L246,46.7836116 L246.783612,46 Z M243.216388,46 L244,46.7836116 L241.783612,49 L241,48.2163884 L243.216388,46 Z" id="Combined-Shape-Copy-2" fill="#858C8F"></path>
                    <circle id="Oval-3" stroke="#858C8F" stroke-width="2" cx="32" cy="32" r="4"></circle>
                    <path d="M0,136 L0,134 L15,134 L15,136 L0,136 Z M12,141 L12,139 L24,139 L24,141 L12,141 Z M17,136 L17,134 L23,134 L23,136 L17,136 Z M6,141 L6,139 L11,139 L11,141 L6,141 Z" id="Combined-Shape" fill="#858C8F"></path>
                    <path d="M260,2 L260,0 L273,0 L273,2 L260,2 Z M270,8 L270,6 L281,6 L281,8 L270,8 Z M274,2 L274,0 L280,0 L280,2 L274,2 Z M264,8 L264,6 L268,6 L268,8 L264,8 Z" id="Combined-Shape-Copy-4" fill="#858C8F"></path>
                </g>
                <g id="relogio" transform="translate(77.544116, 147.317306) rotate(-20.000000) translate(-77.544116, -147.317306) translate(56.544116, 125.817306)" stroke="#17C9B2">
                    <circle id="Oval-4" stroke-width="0.5" fill="#17C9B2" transform="translate(20.918364, 21.755098) scale(-1, 1) translate(-20.918364, -21.755098) " cx="20.9183635" cy="21.7550981" r="20.9183635"></circle>
                    <circle id="Oval-4-Copy" stroke-width="0.5" fill="#FFFFFF" cx="20.9183635" cy="21.7550981" r="16.7346908"></circle>
                    <path d="M6.27550906,6.27550906 L5.43877452,5.43877452" id="Line" stroke-width="0.5" stroke-linecap="square"></path>
                    <path d="M7.11224361,5.43877452 L6.27550906,4.60203998" id="Line-Copy" stroke-width="0.5" stroke-linecap="square"></path>
                    <path d="M3.34693817,6.69387634 L1.67346908,5.02040725 C1.67346908,4.46258422 1.9523806,3.9047612 2.51020363,3.34693817 C3.06802665,2.78911514 3.9047612,1.9523806 5.02040725,0.836734542 C5.57823028,0.278911514 6.13605331,0.278911514 6.69387634,0.836734542 C7.25169936,1.39455757 7.80952239,1.9523806 8.36734542,2.51020363 L3.34693817,6.69387634 Z" id="Path-26-Copy" fill="#FFFFFF"></path>
                    <path d="M6.27550906,6.27550906 L5.43877452,5.43877452" id="Line-Copy-3" stroke-width="0.5" stroke-linecap="square"></path>
                    <path d="M7.11224361,5.43877452 L6.27550906,4.60203998" id="Line-Copy-2" stroke-width="0.5" stroke-linecap="square"></path>
                    <path d="M35.1428508,6.69387634 L33.4693817,5.02040725 C33.4693817,4.46258422 33.7482932,3.9047612 34.3061162,3.34693817 C34.8639392,2.78911514 35.7006738,1.9523806 36.8163198,0.836734542 C37.3741429,0.278911514 37.9319659,0.278911514 38.4897889,0.836734542 C39.047612,1.39455757 39.605435,1.9523806 40.163258,2.51020363 L35.1428508,6.69387634 Z" id="Path-26-Copy-2" fill="#FFFFFF" transform="translate(36.816320, 3.556122) scale(-1, 1) translate(-36.816320, -3.556122) "></path>
                    <path d="M36.3979526,6.27550906 L35.561218,5.43877452" id="Line-Copy-5" stroke-width="0.5" stroke-linecap="square" transform="translate(35.979585, 5.857142) scale(-1, 1) translate(-35.979585, -5.857142) "></path>
                    <path d="M35.561218,5.43877452 L34.7244835,4.60203998" id="Line-Copy-4" stroke-width="0.5" stroke-linecap="square" transform="translate(35.142851, 5.020407) scale(-1, 1) translate(-35.142851, -5.020407) "></path>
                    <path d="M21.6968522,9.86759078 L21.6968522,10.0594053 L21.3132232,10.0594053 L21.3132232,9.86759078 L21.3132232,7.56581687 L21.3132232,7.37400238 L21.6968522,7.37400238 L21.6968522,7.56581687 L21.6968522,9.86759078 Z M27.0114768,11.53774 L26.8758435,11.6733734 L26.6045769,11.4021067 L26.7402102,11.2664734 L28.2747261,9.73195745 L28.4103595,9.59632412 L28.6816261,9.86759078 L28.5459928,10.0032241 L27.0114768,11.53774 Z M31.6150247,16.1412879 L31.4793913,16.2769212 L31.2081247,16.0056545 L31.343758,15.8700212 L32.8782739,14.3355053 L33.0139073,14.1998719 L33.2851739,14.4711386 L33.1495406,14.6067719 L31.6150247,16.1412879 Z M33.0139073,21.5682748 L32.8220928,21.5682748 L32.8220928,21.1846458 L33.0139073,21.1846458 L35.3156812,21.1846458 L35.5074957,21.1846458 L35.5074957,21.5682748 L35.3156812,21.5682748 L33.0139073,21.5682748 Z M31.3729918,27.6741234 L31.2133925,27.5677238 L31.4261916,27.2485252 L31.5857909,27.3549248 L33.8875648,28.8894407 L34.0471641,28.9958402 L33.834365,29.3150388 L33.6747657,29.2086393 L31.3729918,27.6741234 Z M26.7402102,32.2537052 L26.6045769,32.1180719 L26.8758435,31.8468052 L27.0114768,31.9824386 L28.5459928,33.5169545 L28.6816261,33.6525878 L28.4103595,33.9238545 L28.2747261,33.7882211 L26.7402102,32.2537052 Z M21.3132232,33.6525878 L21.3132232,33.4607733 L21.6968522,33.4607733 L21.6968522,33.6525878 L21.6968522,35.9543617 L21.6968522,36.1461762 L21.3132232,36.1461762 L21.3132232,35.9543617 L21.3132232,33.6525878 Z M13.9680914,33.7882211 L13.832458,33.9238545 L13.5611914,33.6525878 L13.6968247,33.5169545 L15.2313407,31.9824386 L15.366974,31.8468052 L15.6382406,32.1180719 L15.5026073,32.2537052 L13.9680914,33.7882211 Z M9.36454356,29.1846733 L9.22891023,29.3203067 L8.95764358,29.04904 L9.0932769,28.9134067 L10.6277928,27.3788907 L10.7634262,27.2432574 L11.0346928,27.5145241 L10.8990595,27.6501574 L9.36454356,29.1846733 Z M6.92713633,21.5682748 L6.73532183,21.5682748 L6.73532183,21.1846458 L6.92713633,21.1846458 L9.22891023,21.1846458 L9.42072473,21.1846458 L9.42072473,21.5682748 L9.22891023,21.5682748 L6.92713633,21.5682748 Z M10.8990595,15.8700212 L11.0346928,16.0056545 L10.7634262,16.2769212 L10.6277928,16.1412879 L9.0932769,14.6067719 L8.95764358,14.4711386 L9.22891023,14.1998719 L9.36454356,14.3355053 L10.8990595,15.8700212 Z M15.5385381,11.3163247 L15.6243201,11.4878888 L15.2811919,11.6594529 L15.1954099,11.4878888 L14.4281519,9.95337283 L14.3423699,9.78180873 L14.6854981,9.61024463 L14.7712801,9.78180873 L15.5385381,11.3163247 Z" id="ponteiros" stroke-width="0.5" stroke-linecap="square" transform="translate(21.121409, 21.760089) rotate(25.000000) translate(-21.121409, -21.760089) "></path>
                    <polyline id="Path-27" transform="translate(21.778142, 21.790035) rotate(-3.000000) translate(-21.778142, -21.790035) " points="21.2781425 13.0043222 21.2781425 21.7900349 21.2781425 30.5757476"></polyline>
                </g>
                <g id="computador" transform="translate(79.000000, 79.000000)" stroke="#8459B9">
                    <path d="M16.9253731,80 L0,80 C0.626865672,84.2 2.19402985,86.9 4.70149254,88.1 C7.20895522,89.3 66.4477612,89.3 182.41791,88.1 C186.80597,86.9 189,84.2 189,80 C189,80 182.104478,80 168.313433,80" id="Path-5" fill="#FFFFFF"></path>
                    <rect id="Rectangle-4" fill="#FFFFFF" x="16.5" y="0.5" width="161" height="80"></rect>
                    <rect id="Rectangle-3" fill="#EBF1F4" opacity="0.8" x="22.5" y="5.5" width="149" height="70"></rect>
                    <path d="M75,81 C75.6666667,83 76.6666667,84 78,84 C79.3333333,84 92.6666667,84 118,84 C120,83.3333333 121,82.3333333 121,81 C121,81 105.666667,81 75,81 Z" id="Path-7"></path>
                </g>
                <g id="foguete" transform="translate(114.000000, 0.000000)">
                    <path d="M45,132 C46.5135135,124 51.0540541,120 58.6216216,120 C66.1891892,120 70.981982,123.5 73,130.5" id="Path-21" stroke="#17C9B2"></path>
                    <g id="Group" transform="translate(73.000000, 58.000000) rotate(22.000000) translate(-73.000000, -58.000000) translate(40.000000, 9.000000)">
                        <path d="M22,77.8561123 C9.85988323,82.4748163 3.03106755,89.1462778 1.51355296,97.8704966 C0.75479566,100.179849 -4.55650542,70.9280561 10.6186405,64" id="Path-14" stroke="#17C9B2" stroke-width="2" fill="#FFFFFF"></path>
                        <path d="M66,77.8561123 C53.8598832,82.4748163 47.0310676,89.1462778 45.513553,97.8704966 C44.7547957,100.179849 39.4434946,70.9280561 54.6186405,64" id="Path-14-Copy" stroke="#17C9B2" stroke-width="2" fill="#FFFFFF" transform="translate(55.000000, 81.000000) scale(-1, 1) translate(-55.000000, -81.000000) "></path>
                        <path d="M32.7361111,84 C14.912037,74.3272727 6,60.3272727 6,42 C6,23.6727273 14.912037,9.67272727 32.7361111,0 C51.5787037,9.67272727 61,23.6727273 61,42 C61,60.3272727 51.5787037,74.3272727 32.7361111,84 Z" id="Path-12" stroke="#17C9B2" stroke-width="2" fill="#FFFFFF"></path>
                        <path d="M17,12 C27.9268293,16 38.5934959,16 49,12" id="Path-13" stroke="#17C9B2"></path>
                        <circle id="Oval" fill="#17C9B2" cx="33" cy="38" r="10"></circle>
                    </g>
                    <path d="M54,90 L54,145.168831 C54,147.722944 52.5,149 49.5,149 C46.5,149 45,148.233766 45,146.701299" id="Path-15" stroke="#17C9B2"></path>
                    <path d="M59,94 L60,144" id="Path-16" stroke="#17C9B2"></path>
                    <path d="M65,93 L65,137.796875 C65.4848485,139.265625 66.6969697,140 68.6363636,140 C70.5757576,140 72.030303,139.265625 73,137.796875" id="Path-17" stroke="#17C9B2"></path>
                    <path d="M0,152 C0,143.919192 4.3836478,139.626263 13.1509434,139.121212 C13.9245283,139.121212 14.6981132,127 27.0754717,127 C34.2955975,127.505051 38.9371069,130.282828 41,135.333333" id="Path-18" stroke="#17C9B2"></path>
                    <path d="M13,155 C13,150.384615 14.3020833,147.307692 16.90625,145.769231 C20.8125,143.461538 24.71875,143.509615 27.84375,146.538462 C30.1875,149.615385 26.28125,144.230769 30.96875,140.384615 C33.0520833,138.846154 35.3958333,138.589744 38,139.615385" id="Path-20" stroke="#17C9B2"></path>
                    <path d="M77,152 C77,143.919192 81.3836478,139.626263 90.1509434,139.121212 C90.9245283,139.121212 91.6981132,127 104.075472,127 C111.295597,127.505051 115.937107,130.282828 118,135.333333" id="Path-18-Copy" stroke="#17C9B2" transform="translate(97.500000, 139.500000) scale(-1, 1) translate(-97.500000, -139.500000) "></path>
                    <path d="M86,155 C86,150.384615 87.3020833,147.307692 89.90625,145.769231 C93.8125,143.461538 97.71875,143.509615 100.84375,146.538462 C103.1875,149.615385 99.28125,144.230769 103.96875,140.384615 C106.052083,138.846154 108.395833,138.589744 111,139.615385" id="Path-20-Copy" stroke="#17C9B2" transform="translate(98.500000, 147.000000) scale(-1, 1) translate(-98.500000, -147.000000) "></path>
                </g>
                <g id="cafe" transform="translate(280.000000, 132.000000)">
                    <path d="M0,3.20792079 L0,49.7227723 C4.26666667,52.5742574 11.0222222,54 20.2666667,54 C29.5111111,54 36.8,52.5742574 42.1333333,49.7227723 L42.1333333,42.2376238 C51.3777778,40.4554455 56,35.7326733 56,28.0693069 C56,16.5742574 49.6,11.7623762 42.1333333,11.7623762 C42.1333333,11.7623762 42.1333333,8.91089109 42.1333333,3.20792079 C41.0666667,1.06930693 33.7777778,0 20.2666667,0 C6.75555556,0 0,1.06930693 0,3.20792079 Z" id="Path-22" stroke="#8459B9" fill="#FCFCFC"></path>
                    <path d="M42,16 L42,36 C48.6666667,35.2982456 52,32.1403509 52,26.5263158 C52,20.9122807 48.6666667,17.4035088 42,16 Z" id="Path-23" stroke="#8459B9" fill="#FFFFFF"></path>
                    <path d="M0,3 C2.48101266,5 9.92405063,6 22.3291139,6 C34.7341772,6 41.2911392,5 42,3 C39.8734177,1 32.8734177,8.32667268e-15 21,0 C7.70886076,0 0.708860759,1 0,3 Z" id="Path-24" stroke="#8459B9" fill="#FFFFFF"></path>
                    <ellipse id="Oval-3" fill="#E5A9CA" cx="7" cy="33.5" rx="2" ry="2.5"></ellipse>
                    <ellipse id="Oval-3-Copy" fill="#E5A9CA" cx="34" cy="33.5" rx="2" ry="2.5"></ellipse>
                    <circle id="Oval-2" fill="#8459B9" cx="13" cy="26" r="2"></circle>
                    <circle id="Oval-2-Copy" fill="#8459B9" cx="28" cy="26" r="2"></circle>
                    <path d="M15.6760563,34 L26.3239437,34 C27,34 27.1690141,34.5454545 26.8309859,35.6363636 C26.3239437,37 25.3098592,40 21.2535211,40 C17.1971831,40 15.8265834,36.3437488 15.1690141,35.6363636 C14.8309859,34.9090909 15,34.3636364 15.6760563,34 Z" id="Path-25" stroke="#8459B9" fill="#8459B9"></path>
                </g>
            </g>
        </g>
    </g>
</svg>